<svg xmlns="http://www.w3.org/2000/svg" width="1000" height="802" viewBox="0 0 1000 802">
<rect width="100%" height="100%" fill="#ffffff"/>
<text x="36" y="38" font-family="Arial" font-size="23" fill="#20242b">RQ1 unseen zero-shot success</text>
<text x="36" y="66" font-family="Arial" font-size="13" fill="#5b6470">Seed-level mean success; 30 research seeds per condition and dependency length</text>
<line x1="310" y1="86" x2="310" y2="744" stroke="#303640"/>
<text x="298" y="116" text-anchor="end" font-family="Arial" font-size="12" fill="#303640">L4 full_aassr</text>
<rect x="310" y="100" width="0.00" height="22" fill="#4c78a8" stroke="#2f4f6f"/>
<text x="318.00" y="116" font-family="Consolas" font-size="12" fill="#20242b">0.0000</text>
<text x="298" y="150" text-anchor="end" font-family="Arial" font-size="12" fill="#303640">L4 random</text>
<rect x="310" y="134" width="367.02" height="22" fill="#4c78a8" stroke="#2f4f6f"/>
<text x="685.02" y="150" font-family="Consolas" font-size="12" fill="#20242b">0.0602</text>
<text x="298" y="184" text-anchor="end" font-family="Arial" font-size="12" fill="#303640">L4 contextual_policy</text>
<rect x="310" y="168" width="0.00" height="22" fill="#4c78a8" stroke="#2f4f6f"/>
<text x="318.00" y="184" font-family="Consolas" font-size="12" fill="#20242b">0.0000</text>
<text x="298" y="218" text-anchor="end" font-family="Arial" font-size="12" fill="#303640">L4 q_learning</text>
<rect x="310" y="202" width="0.00" height="22" fill="#4c78a8" stroke="#2f4f6f"/>
<text x="318.00" y="218" font-family="Consolas" font-size="12" fill="#20242b">0.0000</text>
<text x="298" y="252" text-anchor="end" font-family="Arial" font-size="12" fill="#303640">L4 dqn</text>
<rect x="310" y="236" width="203.33" height="22" fill="#4c78a8" stroke="#2f4f6f"/>
<text x="521.33" y="252" font-family="Consolas" font-size="12" fill="#20242b">0.0333</text>
<text x="298" y="286" text-anchor="end" font-family="Arial" font-size="12" fill="#303640">L4 prophecy_no_imagination</text>
<rect x="310" y="270" width="0.00" height="22" fill="#4c78a8" stroke="#2f4f6f"/>
<text x="318.00" y="286" font-family="Consolas" font-size="12" fill="#20242b">0.0000</text>
<text x="298" y="320" text-anchor="end" font-family="Arial" font-size="12" fill="#303640">L6 full_aassr</text>
<rect x="310" y="304" width="0.00" height="22" fill="#4c78a8" stroke="#2f4f6f"/>
<text x="318.00" y="320" font-family="Consolas" font-size="12" fill="#20242b">0.0000</text>
<text x="298" y="354" text-anchor="end" font-family="Arial" font-size="12" fill="#303640">L6 random</text>
<rect x="310" y="338" width="88.45" height="22" fill="#4c78a8" stroke="#2f4f6f"/>
<text x="406.45" y="354" font-family="Consolas" font-size="12" fill="#20242b">0.0145</text>
<text x="298" y="388" text-anchor="end" font-family="Arial" font-size="12" fill="#303640">L6 contextual_policy</text>
<rect x="310" y="372" width="0.00" height="22" fill="#4c78a8" stroke="#2f4f6f"/>
<text x="318.00" y="388" font-family="Consolas" font-size="12" fill="#20242b">0.0000</text>
<text x="298" y="422" text-anchor="end" font-family="Arial" font-size="12" fill="#303640">L6 q_learning</text>
<rect x="310" y="406" width="0.00" height="22" fill="#4c78a8" stroke="#2f4f6f"/>
<text x="318.00" y="422" font-family="Consolas" font-size="12" fill="#20242b">0.0000</text>
<text x="298" y="456" text-anchor="end" font-family="Arial" font-size="12" fill="#303640">L6 dqn</text>
<rect x="310" y="440" width="0.00" height="22" fill="#4c78a8" stroke="#2f4f6f"/>
<text x="318.00" y="456" font-family="Consolas" font-size="12" fill="#20242b">0.0000</text>
<text x="298" y="490" text-anchor="end" font-family="Arial" font-size="12" fill="#303640">L6 prophecy_no_imagination</text>
<rect x="310" y="474" width="0.00" height="22" fill="#4c78a8" stroke="#2f4f6f"/>
<text x="318.00" y="490" font-family="Consolas" font-size="12" fill="#20242b">0.0000</text>
<text x="298" y="524" text-anchor="end" font-family="Arial" font-size="12" fill="#303640">L8 full_aassr</text>
<rect x="310" y="508" width="0.00" height="22" fill="#4c78a8" stroke="#2f4f6f"/>
<text x="318.00" y="524" font-family="Consolas" font-size="12" fill="#20242b">0.0000</text>
<text x="298" y="558" text-anchor="end" font-family="Arial" font-size="12" fill="#303640">L8 random</text>
<rect x="310" y="542" width="26.43" height="22" fill="#4c78a8" stroke="#2f4f6f"/>
<text x="344.43" y="558" font-family="Consolas" font-size="12" fill="#20242b">0.0043</text>
<text x="298" y="592" text-anchor="end" font-family="Arial" font-size="12" fill="#303640">L8 contextual_policy</text>
<rect x="310" y="576" width="0.00" height="22" fill="#4c78a8" stroke="#2f4f6f"/>
<text x="318.00" y="592" font-family="Consolas" font-size="12" fill="#20242b">0.0000</text>
<text x="298" y="626" text-anchor="end" font-family="Arial" font-size="12" fill="#303640">L8 q_learning</text>
<rect x="310" y="610" width="0.00" height="22" fill="#4c78a8" stroke="#2f4f6f"/>
<text x="318.00" y="626" font-family="Consolas" font-size="12" fill="#20242b">0.0000</text>
<text x="298" y="660" text-anchor="end" font-family="Arial" font-size="12" fill="#303640">L8 dqn</text>
<rect x="310" y="644" width="0.00" height="22" fill="#4c78a8" stroke="#2f4f6f"/>
<text x="318.00" y="660" font-family="Consolas" font-size="12" fill="#20242b">0.0000</text>
<text x="298" y="694" text-anchor="end" font-family="Arial" font-size="12" fill="#303640">L8 prophecy_no_imagination</text>
<rect x="310" y="678" width="0.00" height="22" fill="#4c78a8" stroke="#2f4f6f"/>
<text x="318.00" y="694" font-family="Consolas" font-size="12" fill="#20242b">0.0000</text>
<text x="615.0" y="780" text-anchor="middle" font-family="Arial" font-size="13" fill="#303640">success rate</text>
</svg>